<?xml version="1.0" encoding="utf-8"?>
<!-- Generator: Adobe Illustrator 22.0.1, SVG Export Plug-In . SVG Version: 6.00 Build 0)  -->
<svg version="1.1" id="레이어_1" xmlns="http://www.w3.org/2000/svg" xmlns:xlink="http://www.w3.org/1999/xlink" x="0px"
	 y="0px" viewBox="0 0 164.5 254.5" style="enable-background:new 0 0 164.5 254.5;" xml:space="preserve">
<style type="text/css">
	.st0{fill:#212121;stroke:#000000;stroke-miterlimit:10;}
	.st1{fill:#FDF3E9;stroke:#000000;stroke-miterlimit:10;}
	.st2{fill:#A8A8A8;stroke:#000000;stroke-miterlimit:10;}
	.st3{fill:none;stroke:#000000;stroke-miterlimit:10;}
	.st4{fill:#212121;}
	.st5{fill:#F29E91;}
	.st6{fill:#8F6E4F;}
	.st7{fill:none;stroke:#000000;stroke-width:0.75;stroke-linecap:round;stroke-miterlimit:10;}
	.st8{stroke:#000000;stroke-width:0.25;stroke-miterlimit:10;}
	.st9{fill:#FFFFFF;stroke:#000000;stroke-width:0.25;stroke-miterlimit:10;}
	.st10{fill:#040000;}
	.st11{fill:none;stroke:#FFFFFF;stroke-linecap:round;stroke-miterlimit:10;}
	.st12{fill:#4EA9D2;stroke:#000000;stroke-miterlimit:10;}
</style>
<path class="st0" d="M8.8,248.9h151c0,0-3.6-47.3-3.1-93s3.8-144-74.4-144s-61.6,85.7-65.1,144S5.9,220.1,8.8,248.9z"/>
<path class="st1" d="M122.6,126.6c0,0,19.5,6.7,19.5-12.4s-13.1-12.3-19.8-8.2C115.5,110,122.6,126.6,122.6,126.6z"/>
<path class="st0" d="M17.9,114.6C17.9,114.6,17.9,114.6,17.9,114.6C17.8,114.6,17.8,114.6,17.9,114.6
	C17.8,114.6,17.9,114.6,17.9,114.6z"/>
<path class="st2" d="M40.9,107.8c0,0.2,0,0.4,0.1,0.5c1.3,2.3,5.2,7.3,14.1,7c1.8-0.1,3.3-0.4,4.6-0.8c0,0,0,0,0,0c0,0,0,0,0,0
	C46.2,117.9,41,108.1,40.9,107.8z"/>
<path class="st3" d="M49.9,108"/>
<path class="st1" d="M67.8,167.2v-10.9l28.9-2.9v13.8C96.7,167.2,81.8,183.2,67.8,167.2z"/>
<path class="st1" d="M78.1,78.6c0,0-48.5-1.7-48.5,13.3c1.5,17.5-4.3,65.5,52.3,65.5s46.5-74.7,46.5-74.7S128.1,78.6,78.1,78.6z"/>
<path class="st0" d="M64.4,23.7c0,0-42,17.2-39.3,66.5c0,0-0.3,1.3,5.4-1.1s18.7-3.8,18.7-3.8"/>
<path class="st0" d="M94.3,24.6c0,0,46.3,13.3,37.8,68.8c0,0-0.9,2.7-4,0c-3.1-2.7-11-7.2-18.1-7.4"/>
<path class="st0" d="M73.9,33.8c0,0-22.4,9.6-24.5,52.6c0,0-0.4,2.6,5.7,1s41.8-1.7,53.1-0.5c0,0,2.3,0.3,2.2-2.5
	s-1.2-19.1-5.8-24.8"/>
<path class="st4" d="M34.8,103.9c0,0,4.6-4.6,12-5.4c0,0,8.1-1.3,18.3,0.1l0.1-3.2C65.3,95.4,37.8,91.8,34.8,103.9z"/>
<path class="st4" d="M118.8,103.8c0,0-4.7-4.6-12.1-5.2c0,0-8.1-1.2-18.3,0.3l-0.1-3.2C88.3,95.6,115.8,91.7,118.8,103.8z"/>
<g>
	<path class="st5" d="M52.9,136c0-7.1-5.8-12.9-12.9-12.9c-2.4,0-4.6,0.6-6.5,1.8c2.2,8.1,6.2,16.1,13.5,22
		C50.6,144.5,52.9,140.6,52.9,136z"/>
	<path class="st5" d="M124.2,125.9c-2.2-1.9-5.1-3-8.3-3c-7.1,0-12.9,5.8-12.9,12.9c0,5.2,3,9.7,7.5,11.7
		C117.2,141.8,121.6,134.1,124.2,125.9z"/>
</g>
<circle class="st6" cx="77.3" cy="125.5" r="0.5"/>
<path class="st7" d="M76.5,116.4c0,0-0.2,4.8-2.3,6.5c-2.1,1.7-2.9,6.8,3.6,6.4"/>
<path class="st7" d="M89,132.3c0,0-2.4,6.9,2.8,9.7"/>
<path class="st7" d="M67,136c0,0,10.3,4.6,21.4,0"/>
<g>
	<path class="st8" d="M64.9,109.6c0,0-6.8-9.1-25-3.3l1.1,2.2L64.9,109.6z"/>
	<path class="st9" d="M41.5,106.9c-0.6,0.3-0.9,1-0.5,1.6c1.3,2.3,5.2,7.3,14.1,7c5.8-0.2,8.7-2.9,9.9-4.4c0.4-0.5,0.3-1.1-0.1-1.5
		C62.6,107.5,54.5,101.5,41.5,106.9z"/>
	<path class="st10" d="M59.3,110.1c0-2.1-1.2-3.9-2.9-4.9c-1.3-0.3-2.7-0.5-4.2-0.5c-2.4,0.6-4.2,2.8-4.2,5.4c0,2.4,1.5,4.4,3.5,5.2
		c1.1,0.2,2.2,0.2,3.5,0.2c0,0,0,0,0,0C57.5,114.9,59.3,112.7,59.3,110.1z"/>
	<path class="st11" d="M52.1,105.9c0,0-1.3,0.6-1.8,1.6"/>
</g>
<g>
	<path class="st8" d="M89.1,109.7c0,0,6.8-9.1,25-3.3l-1.1,2.2L89.1,109.7z"/>
	<path class="st9" d="M112.5,106.9c0.6,0.3,0.9,1,0.5,1.6c-1.3,2.3-5.2,7.3-14.1,7c-5.8-0.2-8.7-2.9-9.9-4.4
		c-0.4-0.5-0.3-1.1,0.1-1.5C91.4,107.5,99.5,101.5,112.5,106.9z"/>
	<path class="st10" d="M94.7,110.2c0-2.1,1.2-3.9,2.9-4.9c1.3-0.3,2.7-0.5,4.2-0.5c2.4,0.6,4.2,2.8,4.2,5.4c0,2.4-1.5,4.4-3.5,5.2
		c-1.1,0.2-2.2,0.2-3.5,0.2c0,0,0,0,0,0C96.5,114.9,94.7,112.8,94.7,110.2z"/>
	<path class="st11" d="M102,105.9c0,0,1.3,0.6,1.8,1.6"/>
</g>
<path class="st12" d="M96.7,167.2c-11.8,6.5-28.9,0-28.9,0s-14.8,3.5-26.9,21.7s-9.4,65.4-9.4,65.4h102.3
	C133.8,254.2,142.9,177.8,96.7,167.2z"/>
<path class="st12" d="M156.6,155.9c0.5-41.6,3.2-126.4-54.9-141.6c15.4,9.2,36.8,25.5,41.8,46.7c8,34,9,35.4,8.7,71.5
	c-0.3,32.3-1.7,96.2,3.8,116.4h3.7C159.8,248.9,156.1,201.6,156.6,155.9z"/>
</svg>
